<svg width="73" height="63" viewBox="0 0 73 63" fill="none" xmlns="http://www.w3.org/2000/svg">
<rect x="24.4146" y="10.5" width="1.21795" height="1.15909" fill="#F6BD26"/>
<rect x="24.4146" y="12.8182" width="1.21795" height="1.15909" fill="#F6BD26"/>
<rect x="24.4146" y="15.2136" width="1.21795" height="1.15909" fill="#F6BD26"/>
<rect x="24.4146" y="17.5319" width="1.21795" height="1.15909" fill="#F6BD26"/>
<rect x="18" y="31.0454" width="1.21795" height="1.15909" fill="#D9D9D9"/>
<rect x="18" y="33.2864" width="1.21795" height="1.15909" fill="#D9D9D9"/>
<rect x="18" y="35.5272" width="1.21795" height="1.15909" fill="#D9D9D9"/>
<rect x="18" y="37.7682" width="1.21795" height="1.15909" fill="#D9D9D9"/>
<rect x="18" y="40.009" width="1.21795" height="1.15909" fill="#D9D9D9"/>
<rect x="18" y="42.25" width="1.21795" height="1.15909" fill="#D9D9D9"/>
<rect x="49.9102" y="25.1727" width="1.21795" height="1.23636" fill="#F6BD26"/>
<rect x="49.9102" y="27.3364" width="1.21795" height="1.23636" fill="#F6BD26"/>
<rect x="49.9102" y="29.8091" width="1.21795" height="1.23636" fill="#F6BD26"/>
<rect x="49.9102" y="32.2046" width="1.21795" height="1.23636" fill="#F6BD26"/>
<rect x="49.9102" y="34.6" width="1.21795" height="1.23636" fill="#F6BD26"/>
<rect x="49.9102" y="37.2273" width="1.21795" height="1.23636" fill="#F6BD26"/>
<rect x="49.9102" y="39.9318" width="1.21795" height="1.23636" fill="#F6BD26"/>
<rect x="49.9102" y="42.4045" width="1.21795" height="1.46818" fill="#F6BD26"/>
<rect x="49.9102" y="45.0318" width="1.21795" height="1.46818" fill="#F6BD26"/>
<rect x="27.7437" y="10.5" width="1.21795" height="1.15909" fill="#F6BD26"/>
<rect x="27.7437" y="12.8182" width="1.21795" height="1.15909" fill="#F6BD26"/>
<rect x="27.7437" y="15.2136" width="1.21795" height="1.15909" fill="#F6BD26"/>
<rect x="27.7437" y="17.5319" width="1.21795" height="1.15909" fill="#F6BD26"/>
<rect x="21.4915" y="31.0454" width="1.21795" height="1.15909" fill="#D9D9D9"/>
<rect x="21.4915" y="33.2864" width="1.21795" height="1.15909" fill="#D9D9D9"/>
<rect x="21.4915" y="35.5272" width="1.21795" height="1.15909" fill="#D9D9D9"/>
<rect x="21.4915" y="37.7682" width="1.21795" height="1.15909" fill="#D9D9D9"/>
<rect x="21.4915" y="40.009" width="1.21795" height="1.15909" fill="#D9D9D9"/>
<rect x="21.4915" y="42.25" width="1.21795" height="1.15909" fill="#D9D9D9"/>
<rect x="52.3462" y="25.1727" width="1.21795" height="1.23636" fill="#F6BD26"/>
<rect x="52.3462" y="27.3364" width="1.21795" height="1.23636" fill="#F6BD26"/>
<rect x="52.3462" y="29.8091" width="1.21795" height="1.23636" fill="#F6BD26"/>
<rect x="52.3462" y="32.2046" width="1.21795" height="1.23636" fill="#F6BD26"/>
<rect x="52.3462" y="34.6" width="1.21795" height="1.23636" fill="#F6BD26"/>
<rect x="52.3462" y="37.2273" width="1.21795" height="1.23636" fill="#F6BD26"/>
<rect x="52.3462" y="39.9318" width="1.21795" height="1.23636" fill="#F6BD26"/>
<rect x="52.3462" y="42.4045" width="1.21795" height="1.46818" fill="#F6BD26"/>
<rect x="52.3462" y="45.0318" width="1.21795" height="1.46818" fill="#F6BD26"/>
<rect x="54.7821" y="29.8091" width="1.21795" height="1.23636" fill="#F6BD26"/>
<rect x="54.7821" y="32.2046" width="1.21795" height="1.23636" fill="#F6BD26"/>
<rect x="54.7821" y="34.6" width="1.21795" height="1.23636" fill="#F6BD26"/>
<rect x="54.7821" y="37.2273" width="1.21795" height="1.23636" fill="#F6BD26"/>
<rect x="54.7821" y="39.9318" width="1.21795" height="1.23636" fill="#F6BD26"/>
<rect x="54.7821" y="42.4045" width="1.21795" height="1.46818" fill="#F6BD26"/>
<rect x="54.7821" y="45.0318" width="1.21795" height="1.46818" fill="#F6BD26"/>
<rect x="30.7478" y="10.5" width="1.21795" height="1.15909" fill="#F6BD26"/>
<rect x="30.7478" y="12.8182" width="1.21795" height="1.15909" fill="#F6BD26"/>
<rect x="30.7478" y="15.2136" width="1.21795" height="1.15909" fill="#F6BD26"/>
<rect x="30.7478" y="17.5319" width="1.21795" height="1.15909" fill="#F6BD26"/>
<rect x="54.7821" y="25.1727" width="1.21795" height="1.23636" fill="#F6BD26"/>
<rect x="54.7821" y="27.3364" width="1.21795" height="1.23636" fill="#F6BD26"/>
<rect x="41.3033" y="17.3" width="1.21795" height="1.15909" fill="#D9D9D9"/>
<rect x="41.3033" y="19.6182" width="1.21795" height="1.15909" fill="#D9D9D9"/>
<rect x="44.0641" y="19.6182" width="1.21795" height="1.15909" fill="#D9D9D9"/>
<rect x="44.0641" y="16.9909" width="1.21795" height="1.46818" fill="#D9D9D9"/>
<rect x="44.0641" y="14.2091" width="1.21795" height="1.62273" fill="#D9D9D9"/>
<rect x="41.3033" y="15.0591" width="1.21795" height="0.927273" fill="#D9D9D9"/>
<path d="M47 19V9.5L39.5 14V31H30V47.5H35V33.5" stroke="white"/>
<path d="M14.5 44.5V28.5L26 22.5V47.5H0" stroke="white"/>
<path d="M21.5 19V1L35 9.5V28" stroke="#F6BD26"/>
<path d="M48 25.5V47.5H41L42 25.5L58 16.5V47.5H72" stroke="#F6BD26"/>
<path d="M6.744 50.92L3.096 55.072C3.584 55.656 4.144 56.308 4.776 57.028C5.416 57.748 5.828 58.192 6.012 58.36C6.204 58.528 6.352 58.656 6.456 58.744C6.568 58.824 6.736 58.916 6.96 59.02C7.184 59.116 7.424 59.18 7.68 59.212L7.668 59.596C7.188 59.588 6.792 59.516 6.48 59.38C6.168 59.236 5.896 59.052 5.664 58.828C5.432 58.596 4.924 58.036 4.14 57.148C3.364 56.252 2.78 55.568 2.388 55.096L6.072 50.92H6.744ZM2.16 50.92V59.5H1.584V50.92H2.16ZM14.2814 56.524L13.0454 59.5H12.4334L16.0454 50.86H16.3814L20.0054 59.5H19.3574L18.1214 56.524H14.2814ZM16.1774 51.82C16.1694 51.828 16.1534 51.876 16.1294 51.964C16.0174 52.308 15.9094 52.6 15.8054 52.84L14.4854 56.032H17.9174L16.5974 52.852C16.3174 52.244 16.1774 51.9 16.1774 51.82ZM26.5824 59.5V50.956C27.3424 50.9 27.9784 50.872 28.4904 50.872C29.3064 50.872 29.9784 51.084 30.5064 51.508C31.0344 51.924 31.2984 52.516 31.2984 53.284C31.2984 53.804 31.1464 54.288 30.8424 54.736C30.5384 55.184 30.1984 55.54 29.8224 55.804C30.1184 56.212 30.4824 56.7 30.9144 57.268C31.3544 57.828 31.6384 58.18 31.7664 58.324C32.2544 58.844 32.8064 59.14 33.4224 59.212L33.4104 59.596C32.9224 59.588 32.5264 59.516 32.2224 59.38C31.9184 59.236 31.6264 59.02 31.3464 58.732C31.0744 58.444 30.3904 57.548 29.2944 56.044C28.5104 56.044 27.7984 56.02 27.1584 55.972V59.5H26.5824ZM28.9464 55.564C29.2984 55.564 29.6744 55.332 30.0744 54.868C30.4744 54.404 30.6744 53.868 30.6744 53.26C30.6744 52.644 30.4664 52.18 30.0504 51.868C29.6424 51.548 29.0984 51.388 28.4184 51.388C28.0584 51.388 27.6384 51.404 27.1584 51.436V55.504C27.7984 55.544 28.3944 55.564 28.9464 55.564Z" fill="white"/>
<path d="M39.8329 52.288L39.8569 53.308V59.5H39.2809V50.848H39.5449L45.1969 57.364C45.5809 57.82 45.8769 58.184 46.0849 58.456C46.0529 58.072 46.0369 57.632 46.0369 57.136V50.92H46.6129V59.572H46.3489L40.5889 52.936C40.1889 52.48 39.9329 52.176 39.8209 52.024L39.8329 52.288ZM55.0369 56.524L53.8009 59.5H53.1889L56.8009 50.86H57.1369L60.7609 59.5H60.1129L58.8769 56.524H55.0369ZM56.9329 51.82C56.9249 51.828 56.9089 51.876 56.8849 51.964C56.7729 52.308 56.6649 52.6 56.5609 52.84L55.2409 56.032H58.6729L57.3529 52.852C57.0729 52.244 56.9329 51.9 56.9329 51.82ZM71.0459 51.676C70.4619 51.428 69.8819 51.304 69.3059 51.304C68.1379 51.304 67.5539 51.736 67.5539 52.6C67.5539 52.976 67.6859 53.328 67.9499 53.656C68.2139 53.976 68.5339 54.264 68.9099 54.52C69.2859 54.768 69.6619 55.024 70.0379 55.288C70.4139 55.552 70.7339 55.868 70.9979 56.236C71.2619 56.604 71.3939 57.004 71.3939 57.436C71.3939 58.164 71.1499 58.716 70.6619 59.092C70.1739 59.46 69.4979 59.644 68.6339 59.644C67.7779 59.644 67.0459 59.424 66.4379 58.984L66.7259 58.552C67.3019 58.928 67.9339 59.116 68.6219 59.116C69.3099 59.116 69.8379 58.98 70.2059 58.708C70.5739 58.428 70.7579 58.028 70.7579 57.508C70.7579 57.148 70.6259 56.808 70.3619 56.488C70.0979 56.16 69.7779 55.868 69.4019 55.612C69.0259 55.348 68.6499 55.08 68.2739 54.808C67.8979 54.536 67.5779 54.212 67.3139 53.836C67.0499 53.46 66.9179 53.056 66.9179 52.624C66.9179 52.056 67.1259 51.608 67.5419 51.28C67.9659 50.944 68.5339 50.776 69.2459 50.776C69.9659 50.776 70.6339 50.92 71.2499 51.208L71.0459 51.676Z" fill="#F6BD26"/>
</svg>
